<svg width="180" height="180" viewBox="0 0 180 180" fill="none" xmlns="http://www.w3.org/2000/svg">
  <rect width="180" height="180" rx="40" fill="#050707" />
  <rect x="9" y="9" width="162" height="162" rx="31" fill="#0B120C" stroke="#6EFF5B" stroke-width="6" />
  <g filter="url(#glow)">
    <path
      d="M69.5 33V147"
      stroke="#D6FF8E"
      stroke-width="9"
      stroke-linecap="round"
    />
    <path
      d="M98.19 49.88C93.75 43.59 86.36 40.06 76.89 40.06C61.65 40.06 50.97 48.93 50.97 61.92C50.97 73.42 58.7 80.77 74.89 84.43L82.51 86.12C92.83 88.43 96.86 91.42 96.86 97.76C96.86 104.66 89.99 109.42 79.31 109.42C68.89 109.42 60.78 104.98 56.64 97.18L43 104.44C49.55 116.16 61.91 123.24 79.13 123.24C98.1 123.24 111.11 113.76 111.11 98.48C111.11 86.54 103.89 79.12 87.34 75.34L79.67 73.6C68.53 71.03 65.17 68.08 65.17 62.6C65.17 56.5 70.66 52.99 78.95 52.99C86.96 52.99 92.55 56.04 95.98 61.76L108.82 54.31L98.19 49.88Z"
      fill="#78FF5D"
    />
    <ellipse cx="123" cy="104.5" rx="18" ry="7.5" fill="#FFE45A" />
    <path
      d="M105 80C105 75.86 113.06 72.5 123 72.5C132.94 72.5 141 75.86 141 80V104.5C141 108.64 132.94 112 123 112C113.06 112 105 108.64 105 104.5V80Z"
      fill="#F3BD21"
    />
    <path
      d="M105 86C105 90.14 113.06 93.5 123 93.5C132.94 93.5 141 90.14 141 86"
      stroke="#FFF4B5"
      stroke-width="2.8"
    />
    <path
      d="M105 92C105 96.14 113.06 99.5 123 99.5C132.94 99.5 141 96.14 141 92"
      stroke="#FFF4B5"
      stroke-width="2.8"
    />
    <path
      d="M105 98C105 102.14 113.06 105.5 123 105.5C132.94 105.5 141 102.14 141 98"
      stroke="#FFF4B5"
      stroke-width="2.8"
    />
    <path
      d="M105 104C105 108.14 113.06 111.5 123 111.5C132.94 111.5 141 108.14 141 104"
      stroke="#FFF4B5"
      stroke-width="2.8"
    />
  </g>
  <defs>
    <filter id="glow" x="25" y="22" width="134" height="126" filterUnits="userSpaceOnUse" color-interpolation-filters="sRGB">
      <feFlood flood-opacity="0" result="BackgroundImageFix" />
      <feColorMatrix
        in="SourceAlpha"
        type="matrix"
        values="0 0 0 0 0 0 0 0 0 0 0 0 0 0 0 0 0 0 127 0"
        result="hardAlpha"
      />
      <feOffset />
      <feGaussianBlur stdDeviation="5" />
      <feComposite in2="hardAlpha" operator="out" />
      <feColorMatrix
        type="matrix"
        values="0 0 0 0 0.431373 0 0 0 0 1 0 0 0 0 0.356863 0 0 0 0.75 0"
      />
      <feBlend mode="normal" in2="BackgroundImageFix" result="effect1_dropShadow_1_2" />
      <feBlend mode="normal" in="SourceGraphic" in2="effect1_dropShadow_1_2" result="shape" />
    </filter>
  </defs>
</svg>
