<svg width="180" height="180" viewBox="0 0 180 180" fill="none" xmlns="http://www.w3.org/2000/svg">
  <rect width="180" height="180" rx="40" fill="#08110D" />
  <rect x="10" y="10" width="160" height="160" rx="30" fill="#0D1F15" stroke="#79F16D" stroke-width="6" />
  <path
    d="M94.21 42C72.24 42 56 54.66 56 72.95C56 88.93 68.38 99.6 90.44 104.49L99.17 106.43C111.79 109.31 117.26 113.31 117.26 119.69C117.26 127.44 108.97 133 95.68 133C82.69 133 72.45 127.32 67.15 117.74L50 126.88C58.06 141.95 74.07 151 95.5 151C122.98 151 138 137.36 138 118.58C138 101.74 126.7 91.85 103.78 86.58L95.26 84.65C82.44 81.72 76.74 77.91 76.74 71.63C76.74 64.55 83.64 60 94.57 60C105.12 60 112.74 64.27 117.35 72.13L133.97 62.63C125.78 48.81 112.14 42 94.21 42Z"
    fill="#79F16D"
  />
  <path
    d="M95 31L95 149"
    stroke="#D8FFC8"
    stroke-width="10"
    stroke-linecap="round"
    opacity="0.9"
  />
</svg>
